<svg viewBox="0 0 284 69" xmlns="http://www.w3.org/2000/svg" xml:space="preserve" style="fill-rule:evenodd;clip-rule:evenodd;stroke-linejoin:round;stroke-miterlimit:2"><path d="M0-47.364c-2.93 0-4.153 1.044-4.753 3.771L-11.813 0H3.468l8.234-47.364H0Z" style="fill:#0066b3;fill-rule:nonzero" transform="translate(232.884 60.011)"/><path d="M0-47.397h-13.334c-2.055 0-3.215.652-4.581 1.927l-15.246 14.835 3.686-16.762h-12.082c-2.882 0-4.066 1.031-4.65 3.694L-54.375 0h15.154l4.172-20.585L-20.934 0h18.879L-20.85-26.781 0-47.397Z" style="fill:#0066b3;fill-rule:nonzero" transform="translate(54.375 60.01)"/><path d="m0 25.158 6.233-36.261H-5.461c-2.884 0-4.115.998-4.729 3.615l-7.083 43.749h37.351l1.426-11.103H0Z" style="fill:#0066b3;fill-rule:nonzero" transform="translate(261.86 23.75)"/><path d="M.021.804A.825.825 0 0 1-.718.145c.2.179.583.243 1.168.042C.582.142.703.094.814.044c.101-.045.204-.099.311-.161.221-.127.468-.304.667-.517h.548l.384.782.146-.782h.389L3.02.503h-.359c-.056 0-.08-.016-.105-.056l-.47-.93-.324.293c.147.041.311.154.356.344.082.336-.202.35-.297.35H1.3c-.068 0-.08-.015-.094-.076l-.1-.472C.85.123.269.461-.14.466A.434.434 0 0 1-.39.407C-.401.4-.404.401-.406.402L-.4.413A.585.585 0 0 0-.115.6S.126.684.45.488C.638.374.765.278.888.176a.822.822 0 0 1-.867.628ZM1.56.328h.135s.136.008.087-.174c0 0-.053-.217-.303-.217l.081.391Z" style="fill:url(#a);fill-rule:nonzero" transform="matrix(41.64483 0 0 -41.64483 81.828 33.594)"/><path d="M-.414.957S-.603.869-.616.654c-.012-.21.147-.355.147-.355l.001-.001A.827.827 0 0 1 .905.742C.933.735.993.718 1.078.69L.991.279h.384s.031.162.061.29c-.218.132-.45.223-.45.223-.412.176-.752.243-1.006.243A.86.86 0 0 1-.414.957Z" style="fill:url(#b);fill-rule:nonzero" transform="matrix(41.44663 0 0 -41.44663 81.564 71.575)"/><defs><radialGradient id="a" cx="0" cy="0" r="1" gradientUnits="userSpaceOnUse" gradientTransform="matrix(1 0 0 -1 0 .172)"><stop offset="0" style="stop-color:#00afdc;stop-opacity:1"/><stop offset=".2" style="stop-color:#00afdc;stop-opacity:1"/><stop offset="1" style="stop-color:#0066b3;stop-opacity:1"/></radialGradient><radialGradient id="b" cx="0" cy="0" r="1" gradientUnits="userSpaceOnUse" gradientTransform="matrix(1 0 0 -1 0 1.093)"><stop offset="0" style="stop-color:#00afdc;stop-opacity:1"/><stop offset=".2" style="stop-color:#00afdc;stop-opacity:1"/><stop offset="1" style="stop-color:#0066b3;stop-opacity:1"/></radialGradient></defs></svg>