<?xml version="1.0" encoding="UTF-8" standalone="no"?><!DOCTYPE svg PUBLIC "-//W3C//DTD SVG 1.1//EN" "http://www.w3.org/Graphics/SVG/1.1/DTD/svg11.dtd"><svg width="100%" height="100%" viewBox="0 0 284 69" version="1.1" xmlns="http://www.w3.org/2000/svg" xmlns:xlink="http://www.w3.org/1999/xlink" xml:space="preserve" xmlns:serif="http://www.serif.com/" style="fill-rule:evenodd;clip-rule:evenodd;stroke-linejoin:round;stroke-miterlimit:2;"><path d="M232.884,12.647c-2.93,0 -4.153,1.044 -4.753,3.771l-7.06,43.593l15.281,0l8.234,-47.364l-11.702,0Z" style="fill:#fff;fill-rule:nonzero;"/><path d="M54.375,12.613l-13.334,0c-2.055,0 -3.215,0.652 -4.581,1.927l-15.246,14.835l3.686,-16.762l-12.082,0c-2.882,0 -4.066,1.031 -4.65,3.694l-8.168,43.703l15.154,-0l4.172,-20.585l14.115,20.585l18.879,-0l-18.795,-26.781l20.85,-20.616Z" style="fill:#fff;fill-rule:nonzero;"/><path d="M261.86,48.908l6.233,-36.261l-11.694,0c-2.884,0 -4.115,0.998 -4.729,3.615l-7.083,43.749l37.351,0l1.426,-11.103l-21.504,0Z" style="fill:#fff;fill-rule:nonzero;"/><path d="M82.703,0.112c-15.174,1.287 -27.766,12.516 -30.776,27.443c8.329,-7.454 24.279,-10.119 48.641,-1.749c5.497,1.874 10.536,3.873 15.159,5.956c4.206,1.874 8.495,4.122 12.951,6.704c9.204,5.289 19.49,12.66 27.778,21.531l22.821,-0l15.992,-32.566l6.08,32.566l16.2,-0l-9.954,-47.35l-14.95,-0c-2.332,-0 -3.332,0.666 -4.373,2.332l-19.573,38.729l-13.493,-12.201c6.122,-1.708 12.952,-6.414 14.826,-14.326c3.415,-13.993 -8.413,-14.576 -12.369,-14.576l-21.697,0c-2.832,0 -3.331,0.625 -3.914,3.165l-4.165,19.656c-10.661,-6.954 -34.857,-21.03 -51.889,-21.238c-3.639,-0.251 -7.269,0.606 -10.411,2.457c-0.459,0.291 -0.584,0.249 -0.667,0.208l0.25,-0.458c3.095,-3.716 7.228,-6.428 11.869,-7.788c4.641,-1.36 10.036,-3.498 23.529,4.664c7.829,4.748 13.118,8.746 18.241,12.994c-3.914,-16.363 -19.339,-27.536 -36.106,-26.153Zm64.091,19.822l5.622,0c-0,0 5.664,-0.333 3.623,7.247c0,-0 -2.207,9.037 -12.618,9.037l3.373,-16.284Z" style="fill:#fff;fill-rule:nonzero;"/><path d="M64.405,31.911c0,-0 -7.833,3.647 -8.372,12.558c-0.497,8.704 6.093,14.713 6.093,14.713l0.041,0.042c6.335,5.871 14.661,9.136 23.299,9.136c16.27,-0 30.409,-11.585 33.607,-27.538c1.161,0.29 3.648,0.994 7.17,2.155l-3.605,17.034l15.915,0c0,0 1.285,-6.714 2.528,-12.019c-9.035,-5.471 -18.651,-9.243 -18.651,-9.243c-17.076,-7.294 -31.167,-10.071 -41.695,-10.071c-5.622,-0.227 -11.218,0.881 -16.33,3.233Z" style="fill:#fff;fill-rule:nonzero;"/></svg>