<?xml version="1.0" encoding="UTF-8" standalone="no"?><!DOCTYPE svg PUBLIC "-//W3C//DTD SVG 1.1//EN" "http://www.w3.org/Graphics/SVG/1.1/DTD/svg11.dtd"><svg width="100%" height="100%" viewBox="0 0 470 113" version="1.1" xmlns="http://www.w3.org/2000/svg" xmlns:xlink="http://www.w3.org/1999/xlink" xml:space="preserve" xmlns:serif="http://www.serif.com/" style="fill-rule:evenodd;clip-rule:evenodd;stroke-linejoin:round;stroke-miterlimit:2;"><path d="M180.904,22.876l-8.075,-0l-0,5.512l8.075,0l0,31.652l8.016,0l0,-50.648l-8.016,-0l0,13.484Z" style="fill:#6d6f70;fill-rule:nonzero;"/><path d="M165.294,15.466c-0.646,-3.453 -3.484,-6.074 -6.903,-6.074l-7.856,-0l-10.445,39.678l8.008,-0l8.984,-34.153l0.06,0l8.99,34.153l8.002,-0l-2.023,-7.654l-6.817,-25.95Z" style="fill:#6d6f70;fill-rule:nonzero;"/><path d="M470,22.876l-8.062,-0l0,-13.484l-8.001,-0l0,50.648l8.001,0l0,-31.652l8.062,0l0,-5.512Z" style="fill:#6d6f70;fill-rule:nonzero;"/><path d="M283.727,29.959l-8.002,0l0,20.746l-6.056,-0l-0,-20.746l-8.006,0l-0,20.746l-8.603,-0l0,5.522l47.815,-0l-0,-5.522l-17.148,-0l-0,-20.746Z" style="fill:#6d6f70;fill-rule:nonzero;"/><path d="M336.188,30.726l16.039,0l-0,-5.519l-29.303,0c-1.398,0 -1.998,-1.008 -2.152,-2.382l31.455,-0l-0,-5.527l-31.506,0l0,-2.381l31.506,0l-0,-5.525l-39.513,-0l0,13.783c0,4.167 3.162,7.551 7.05,7.551l8.42,0l0,3.223l-20.591,0l-0,5.523l49.179,-0l-0,-5.523l-20.584,0l0,-3.223Z" style="fill:#6d6f70;fill-rule:nonzero;"/><path d="M332.188,58.974c-6.474,0 -10.613,-2.795 -10.613,-6.267c-0,-3.463 4.139,-6.266 10.613,-6.266c6.475,-0 10.616,2.803 10.616,6.266c0,3.472 -4.141,6.267 -10.616,6.267m-0,-18.059c-11.351,0 -18.613,5.283 -18.613,11.792c-0,6.509 7.262,11.801 18.613,11.801c11.357,-0 18.616,-5.292 18.616,-11.801c-0,-6.509 -7.259,-11.792 -18.616,-11.792" style="fill:#6d6f70;fill-rule:nonzero;"/><path d="M387.036,24.13l-7.995,0l0,9.82l-16.31,-0l0,5.523l46.959,-0l-0,-5.523l-22.654,-0l-0,-9.82Z" style="fill:#6d6f70;fill-rule:nonzero;"/><path d="M386.208,58.974c-6.482,0 -10.617,-2.795 -10.617,-6.267c0,-3.463 4.135,-6.266 10.617,-6.266c6.468,-0 10.616,2.803 10.616,6.266c0,3.472 -4.148,6.267 -10.616,6.267m-0,-18.059c-11.358,0 -18.618,5.283 -18.618,11.792c0,6.509 7.26,11.801 18.618,11.801c11.356,-0 18.62,-5.292 18.62,-11.801c-0,-6.509 -7.264,-11.792 -18.62,-11.792" style="fill:#6d6f70;fill-rule:nonzero;"/><path d="M198.206,35.483l20.343,-0l-0,3.22l-16.916,-0l0,5.517l33.841,-0l0,2.388l-33.841,-0l0,5.871c0,4.163 3.152,7.561 7.044,7.561l34.789,0l0,-5.529l-31.82,0c-1.408,0 -1.869,-1.01 -1.981,-2.381l33.801,-0l0,-13.427l-16.905,-0l0,-3.22l20.345,-0l0,-5.524l-48.7,-0l0,5.524Z" style="fill:#6d6f70;fill-rule:nonzero;"/><path d="M222.554,10.455c6.471,-0 10.621,2.811 10.621,6.266c0,3.474 -4.15,6.282 -10.621,6.282c-6.475,0 -10.614,-2.808 -10.614,-6.282c0,-3.455 4.139,-6.266 10.614,-6.266m0,18.067c11.353,0 18.615,-5.286 18.615,-11.801c-0,-6.511 -7.262,-11.79 -18.615,-11.79c-11.349,-0 -18.613,5.279 -18.613,11.79c0,6.515 7.264,11.801 18.613,11.801" style="fill:#6d6f70;fill-rule:nonzero;"/><path d="M286.859,14.961c1.659,-0 2.993,1.435 2.993,3.203l0,26.697l8.001,-0l-0,-27.863c-0,-4.162 -3.145,-7.551 -7.045,-7.551l-33.963,0l-0,5.514l30.014,-0Z" style="fill:#6d6f70;fill-rule:nonzero;"/><path d="M395.299,14.917c1.663,0 2.997,1.421 2.997,3.193l0,13.22l7.985,0l0,-14.379c0,-4.164 -3.143,-7.56 -7.034,-7.56l-33.083,0l-0,5.526l29.135,0Z" style="fill:#6d6f70;fill-rule:nonzero;"/><path d="M433.735,9.392l-7.864,-0l-10.437,39.678l8.002,0l8.976,-34.153l0.077,0l8.981,34.153l8.002,0l-8.838,-33.572c-0.627,-3.472 -3.478,-6.106 -6.899,-6.106" style="fill:#6d6f70;fill-rule:nonzero;"/><path d="M194.765,89.336c-0.461,-0.243 -0.907,-0.481 -1.369,-0.75l-3.22,-1.505c-0.294,-0.163 -0.589,-0.32 -0.878,-0.475c-2.189,-1.169 -3.529,-1.969 -3.529,-3.655c-0,-2.959 3.175,-3.282 4.513,-3.282c3.591,0.175 6.559,1.124 8.011,1.892l0.78,0.411l-0,-5.968l-0.994,-0.267c-1.997,-0.541 -4.735,-1.287 -7.465,-1.287c-6.876,0 -10.976,3.31 -10.976,8.852c-0,4.934 5.338,7.529 9.241,9.423l1.687,0.821c2.223,1.07 4.327,2.087 4.327,4.832c-0,3.537 -3.659,4.064 -5.844,4.064c-3.683,-0 -6.251,-1.024 -7.787,-1.637c-0.227,-0.089 -0.429,-0.171 -0.601,-0.236l-0.718,-0.265l0,5.812l0.662,0.168c2.333,0.596 5.235,1.339 8.016,1.339c8.023,-0 12.442,-3.45 12.442,-9.734c-0.156,-5.292 -3.559,-7.1 -6.298,-8.553" style="fill:#6d6f70;fill-rule:nonzero;"/><path d="M215.623,88.556c2.789,0 4.15,2.021 4.34,4.18l-9.644,-0c0.557,-2.667 2.46,-4.18 5.304,-4.18m0.129,-4.791c-6.982,0 -11.319,4.37 -11.319,11.408c0,4.082 1.681,7.786 4.501,9.909c2.056,1.575 5.33,2.507 8.754,2.507c2.711,-0 5.145,-0.582 7.039,-1.689l0.264,-0.153l-0,-4.738l-0.797,0.467c-1.888,1.1 -4.465,1.442 -5.193,1.442c-4.786,0 -7.656,-1.828 -8.532,-5.44l15.218,0l0.003,-3.355c-0.14,-6.293 -4.04,-10.358 -9.938,-10.358" style="fill:#6d6f70;fill-rule:nonzero;"/><path d="M240.824,88.599c5.071,-0 5.623,4.992 5.623,7.141c-0,2.12 -0.534,7.047 -5.452,7.047c-5.26,-0 -5.665,-5.36 -5.665,-7.006c0,-1.684 0.398,-7.182 5.494,-7.182m0.043,-4.785c-6.825,-0 -11.234,4.694 -11.234,11.967c-0,7.273 4.336,11.793 11.321,11.793c6.982,-0 11.315,-4.533 11.315,-11.834c0,-7.36 -4.37,-11.926 -11.402,-11.926" style="fill:#6d6f70;fill-rule:nonzero;"/><path d="M270.859,93.893c-0.051,1.125 -0.157,2.038 -0.334,2.939c-0.491,2.127 -1.847,5.699 -5.423,5.699c-2.767,-0 -3.15,-2.017 -3.15,-4.195l0,-14.094l-5.442,-0l0,15.653c0,4.282 3.32,7.635 7.553,7.635c3.753,0 5.783,-1.63 6.882,-3.476l0,3.005l5.347,0l-0,-22.817l-5.433,-0l-0,9.651Z" style="fill:#6d6f70;fill-rule:nonzero;"/><rect x="282.106" y="74.972" width="5.65" height="32.213" style="fill:#6d6f70;"/><path d="M322.526,99.15l-7.976,-24.178l-7.453,-0l-0,32.171l5.476,0l-0,-21.876l7.321,21.876l5.142,0l7.317,-21.764l-0,21.764l5.483,0l0,-32.171l-7.417,-0l-7.893,24.178Z" style="fill:#6d6f70;fill-rule:nonzero;"/><path d="M353.617,88.556c2.786,0 4.15,2.021 4.337,4.18l-9.643,-0c0.556,-2.667 2.464,-4.18 5.306,-4.18m0.13,-4.791c-6.983,0 -11.317,4.37 -11.317,11.408c-0,4.082 1.682,7.784 4.496,9.909c2.059,1.575 5.33,2.507 8.755,2.507c2.711,-0 5.146,-0.582 7.043,-1.689l0.262,-0.153l-0,-4.738l-0.799,0.467c-1.888,1.1 -4.466,1.442 -5.195,1.442c-4.779,0 -7.648,-1.828 -8.531,-5.44l15.215,0l0.002,-3.355c-0.131,-6.293 -4.03,-10.358 -9.931,-10.358" style="fill:#6d6f70;fill-rule:nonzero;"/><path d="M376.458,76.511l-5.653,3.412l-0,4.406l-3.729,-0l0,4.832l3.729,-0l-0,11.601c-0,4.58 2.51,6.901 7.462,6.901c0.926,-0 2.027,-0.032 3.797,-0.263l0.46,-0.063l-0,-5.302l-0.693,0.216c-1.315,0.412 -2.089,0.495 -2.911,0.495c-2.29,0 -2.462,-1.454 -2.462,-3.673l-0,-9.912l6.195,-0l0,-4.832l-6.195,-0l-0,-7.818Z" style="fill:#6d6f70;fill-rule:nonzero;"/><path d="M395.7,85.636c-0.64,0.44 -1.217,1.069 -1.725,1.877l-0,-3.185l-5.607,0l0,22.857l5.607,0l-0,-9.42c0.097,-1.6 0.243,-2.708 0.463,-3.591c0.966,-3.929 4.963,-4.753 8.155,-4.753l0.531,-0l-0,-5.567l-0.531,-0c-3.634,-0 -5.058,0.549 -6.893,1.782" style="fill:#6d6f70;fill-rule:nonzero;"/><path d="M416.497,88.599c5.075,-0 5.623,4.992 5.623,7.141c-0,2.12 -0.534,7.047 -5.448,7.047c-5.259,-0 -5.667,-5.36 -5.667,-7.006c-0,-1.684 0.396,-7.182 5.492,-7.182m0.039,-4.785c-6.818,-0 -11.232,4.694 -11.232,11.967c-0,7.273 4.343,11.793 11.322,11.793c6.98,-0 11.318,-4.533 11.318,-11.834c0,-7.36 -4.368,-11.926 -11.408,-11.926" style="fill:#6d6f70;fill-rule:nonzero;"/><path d="M28.184,52.842l1.611,-4.436c4.336,-12.354 12.617,-24.591 30.681,-24.591l45.047,-0l-4.027,10.998l-35.66,-0c-7.347,-0 -11.261,4.066 -14.895,11.299l69.069,0.004c-5.049,-26.216 -29.787,-46.116 -59.534,-46.116c-33.397,0 -60.476,25.081 -60.476,56.022c0,1.015 0.032,2.02 0.09,3.019l92.683,-0.006l-1.608,4.433c-4.342,12.356 -12.633,24.591 -30.689,24.591l-45.046,0l4.011,-10.998l35.674,0c7.346,0 11.259,-4.06 14.892,-11.294l-69.092,-0c4.977,26.299 29.748,46.28 59.561,46.28c33.397,0 60.477,-25.077 60.477,-56.025c-0,-1.069 -0.037,-2.131 -0.1,-3.184l-92.669,0.004Z" style="fill:#16298c;fill-rule:nonzero;"/></svg>