<svg xmlns="http://www.w3.org/2000/svg" xml:space="preserve" style="fill-rule:evenodd;clip-rule:evenodd;stroke-linejoin:round;stroke-miterlimit:2" viewBox="0 0 420 144"><path d="M118.91 64.291h52.809l-.28-1.855c-4.191-25.68-24.817-45.544-50.65-48.719l-1.879-.203v10.693l1.701.204c16.257 2.387 30.152 12.954 36.832 27.967l.661 1.574H118.91v-3.607l.025-.508c.152-1.524 1.143-2.946 2.489-3.657l.483-.204 9.195-3.607V31.828l-.025-.381c-.102-.762-.661-1.473-1.346-1.778l-.356-.127-1.804-.483c-9.144-2.21-18.695-2.235-27.839 0l-1.804.483-.355.127a2.319 2.319 0 0 0-1.347 1.778l-.025.381v10.541l9.195 3.607.457.204c1.524.787 2.54 2.464 2.515 4.165v3.607h-39.27l.66-1.574c6.681-15.038 20.55-25.554 36.832-27.967l1.702-.204V13.514l-1.854.203C80.63 16.892 59.953 36.756 55.787 62.436l-.279 1.855h52.784v7.595H55l.025 1.879.102 1.88c2.007 30.177 26.392 53.8 56.619 54.816l1.88.025 1.88-.025c30.202-1.016 54.638-24.639 56.594-54.816l.101-1.88.026-1.879H118.91v-7.595Zm41.505 18.162-.406 1.651-.457 1.625c-5.919 19.636-23.751 33.378-44.249 34.089l-1.702.025-1.702-.025c-20.499-.711-38.305-14.428-44.224-34.089l-.482-1.625-.407-1.651h41.48v5.613l-.025.508c-.254 1.982-1.626 3.557-3.582 4.065L81.849 98.1l-.33.101a2.36 2.36 0 0 0-1.473 1.855l-.026.355v5.131h67.085v-5.131l-.025-.355c-.102-.813-.686-1.575-1.474-1.855l-.33-.101-22.81-5.461-.508-.153a4.665 4.665 0 0 1-3.074-3.912l-.025-.508v-5.613h41.556Z" style="fill:#090980;fill-rule:nonzero"/><path d="M236.987 49.174h-20.991v57.088h-14.119V49.174h-20.708V37.738h55.818v11.436ZM270.402 81.177h-11.248v25.085h-14.119V37.738h25.461c8.095 0 14.339 1.804 18.731 5.412 4.393 3.608 6.589 8.707 6.589 15.296 0 4.675-1.012 8.573-3.035 11.695-2.024 3.122-5.091 5.608-9.201 7.46l14.825 28.003v.658H283.25l-12.848-25.085Zm-11.248-11.436h11.389c3.546 0 6.291-.902 8.236-2.706 1.946-1.804 2.918-4.291 2.918-7.46 0-3.232-.918-5.773-2.753-7.624-1.836-1.851-4.652-2.777-8.448-2.777h-11.342v20.567ZM345.233 92.143h-24.755l-4.707 14.119h-15.013l25.509-68.524h13.083L365 106.262h-15.013l-4.754-14.119ZM324.29 80.707h17.131l-8.613-25.65-8.518 25.65Z" style="fill:#50555b;fill-rule:nonzero"/></svg>